<svg width="24" height="24" viewBox="0 0 24 24" fill="none" xmlns="http://www.w3.org/2000/svg">
<path d="M11.9999 3C12.4141 3 12.7499 3.33579 12.7499 3.75V9.5H15.2454C16.7641 9.5 17.9954 10.7312 17.9954 12.25V18.4416L19.7199 16.7193C20.013 16.4266 20.4879 16.4269 20.7806 16.72C21.0733 17.0131 21.073 17.488 20.7799 17.7807L17.7753 20.7812C17.4824 21.0737 17.0078 21.0736 16.715 20.7808L13.7145 17.7803C13.4216 17.4874 13.4216 17.0126 13.7145 16.7197C14.0074 16.4268 14.4823 16.4268 14.7752 16.7197L16.4954 18.4398V12.25C16.4954 11.5596 15.9357 11 15.2454 11H8.74983C8.05948 11 7.49983 11.5596 7.49983 12.25V18.4398L9.22001 16.7197C9.5129 16.4268 9.98777 16.4268 10.2807 16.7197C10.5736 17.0126 10.5736 17.4874 10.2807 17.7803L7.28016 20.7808C6.98727 21.0737 6.5124 21.0737 6.21951 20.7808L3.21894 17.7803C2.92605 17.4874 2.92604 17.0126 3.21893 16.7197C3.51182 16.4268 3.9867 16.4268 4.27959 16.7197L5.99983 18.4399V12.25C5.99983 10.7312 7.23105 9.5 8.74983 9.5H11.2499V3.75C11.2499 3.33579 11.5857 3 11.9999 3Z" fill="#8C8C8C"/>
</svg>
