<svg width="24" height="24" viewBox="0 0 24 24" fill="none" xmlns="http://www.w3.org/2000/svg">
<path d="M6.5 6.5C6.5 7.19036 7.05964 7.75 7.75 7.75C8.44036 7.75 9 7.19036 9 6.5C9 5.80964 8.44036 5.25 7.75 5.25C7.05964 5.25 6.5 5.80964 6.5 6.5ZM13.4924 2.89817C12.8879 2.32164 12.0846 2 11.2493 2H5.75035C4.23157 2 3.00035 3.23122 3.00035 4.75V9.70264C3.00035 10.5737 3.34999 11.4083 3.97086 12.0192L10.9163 18.8535C11.7955 19.7186 13.2073 19.7146 14.0816 18.8445L20.3382 12.6177C21.2352 11.7249 21.2197 10.2682 20.3039 9.39468L13.4924 2.89817ZM11.2493 3.5C11.6991 3.5 12.1316 3.67319 12.4571 3.98363L19.2686 10.4801C19.5739 10.7713 19.5791 11.2569 19.28 11.5545L13.0234 17.7813C12.732 18.0713 12.2614 18.0727 11.9683 17.7843L5.02293 10.95C4.68862 10.621 4.50035 10.1717 4.50035 9.70264V4.75C4.50035 4.05964 5.05999 3.5 5.75035 3.5H11.2493ZM3.2691 12.732L4.74419 14.1834C4.78396 14.2377 4.82868 14.2894 4.87834 14.3381L10.2117 19.5665C10.4213 19.772 10.6518 19.9434 10.8963 20.0807C12.1339 20.7802 13.7313 20.6035 14.7866 19.5532L16.718 17.6311L19.1292 15.2451C19.1679 15.2068 19.2036 15.1666 19.2363 15.1248L20.8651 13.5037C21.1763 14.4607 20.9491 15.5545 20.1843 16.3113L15.8279 20.6221C13.9832 22.4475 11.0149 22.4544 9.16164 20.6377L3.82828 15.4093C3.05513 14.6514 2.82725 13.5543 3.13715 12.5962C3.18003 12.6423 3.22402 12.6876 3.2691 12.732Z" fill="#4A59FE"/>
</svg>
