<svg width="24" height="24" viewBox="0 0 24 24" fill="none" xmlns="http://www.w3.org/2000/svg">
<path d="M22.6303 17.5744C25.0062 13.0469 24.2912 7.32061 20.4853 3.51472C15.799 -1.17157 8.20101 -1.17157 3.51472 3.51472C-1.17157 8.20101 -1.17157 15.799 3.51472 20.4853C7.35875 24.3293 13.1619 25.0202 17.7102 22.5579H21.6703C22.2005 22.5579 22.6303 22.1281 22.6303 21.5979V17.5744Z" fill="white"/>
<path fill-rule="evenodd" clip-rule="evenodd" d="M19.7502 11.2583C20.1478 11.2583 20.4702 11.5807 20.4702 11.9783C20.4702 16.6819 16.6572 20.4948 11.9537 20.4948C7.25021 20.4948 3.43726 16.6819 3.43726 11.9783C3.43726 11.5807 3.75961 11.2583 4.15726 11.2583C4.5549 11.2583 4.87726 11.5807 4.87726 11.9783C4.87726 15.8866 8.0455 19.0548 11.9537 19.0548C15.8619 19.0548 19.0302 15.8866 19.0302 11.9783C19.0302 11.5807 19.3525 11.2583 19.7502 11.2583Z" fill="#4A59FE"/>
<path fill-rule="evenodd" clip-rule="evenodd" d="M6.67372 8.02188C7.07137 8.02188 7.39372 8.34423 7.39372 8.74188V11.1419C7.39372 11.5395 7.07137 11.8619 6.67372 11.8619C6.27608 11.8619 5.95372 11.5395 5.95372 11.1419V8.74188C5.95372 8.34423 6.27608 8.02188 6.67372 8.02188Z" fill="#4A59FE"/>
<path fill-rule="evenodd" clip-rule="evenodd" d="M17.2337 8.02188C16.8361 8.02188 16.5137 8.34423 16.5137 8.74188V11.1419C16.5137 11.5395 16.8361 11.8619 17.2337 11.8619C17.6314 11.8619 17.9537 11.5395 17.9537 11.1419V8.74188C17.9537 8.34423 17.6314 8.02188 17.2337 8.02188Z" fill="#4A59FE"/>
<path fill-rule="evenodd" clip-rule="evenodd" d="M9.31372 6.34188C9.71137 6.34188 10.0337 6.66423 10.0337 7.06188V12.8219C10.0337 13.2195 9.71137 13.5419 9.31372 13.5419C8.91608 13.5419 8.59372 13.2195 8.59372 12.8219V7.06188C8.59372 6.66423 8.91608 6.34188 9.31372 6.34188Z" fill="#4A59FE"/>
<path fill-rule="evenodd" clip-rule="evenodd" d="M14.5937 6.34188C14.1961 6.34188 13.8737 6.66423 13.8737 7.06188V12.8219C13.8737 13.2195 14.1961 13.5419 14.5937 13.5419C14.9914 13.5419 15.3137 13.2195 15.3137 12.8219V7.06188C15.3137 6.66423 14.9914 6.34188 14.5937 6.34188Z" fill="#4A59FE"/>
<path fill-rule="evenodd" clip-rule="evenodd" d="M11.9537 4.42188C12.3514 4.42188 12.6737 4.74423 12.6737 5.14188L12.6737 14.7419C12.6737 15.1395 12.3514 15.4619 11.9537 15.4619C11.5561 15.4619 11.2337 15.1395 11.2337 14.7419L11.2337 5.14188C11.2337 4.74423 11.5561 4.42187 11.9537 4.42188Z" fill="#4A59FE"/>
</svg>
